# xmcd CD database file
#
# Track frame offsets:
#	150
#	22535
#	46725
#	72884
#	90439
#	113716
#	138105
#	154213
#	177478
#
# Disc length: 2638 seconds
#
# Revision: 1
# Processed by: cddbd v1.5.2PL0 Copyright (c) Steve Scherf et al.
# Submitted via: CDex 1.51
#
DISCID=620a4c09
DTITLE=אהובה עוזרי - הבטחות
DYEAR=1991
DGENRE=מזרחי
TTITLE0=הבטחות
TTITLE1=שנים של אושר
TTITLE2=ריקוד אחרון
TTITLE3=חיים הקיוסק
TTITLE4=עודני כאן
TTITLE5=דמעה חמה
TTITLE6=ניגון עתיק
TTITLE7=מנדלנה
TTITLE8=היה לי אח יואב
EXTD=YEAR: 1991
EXTT0=
EXTT1=
EXTT2=
EXTT3=
EXTT4=
EXTT5=
EXTT6=
EXTT7=
EXTT8=
PLAYORDER=
